<svg xmlns="http://www.w3.org/2000/svg" viewBox="0 0 300 300" width="300" height="300">
  <defs>
    <linearGradient id="sealLGO" x1="0%" y1="0%" x2="100%" y2="100%">
      <stop offset="0%" stop-color="#b87200"></stop>
      <stop offset="14%" stop-color="#dca010"></stop>
      <stop offset="30%" stop-color="#f8dc60"></stop>
      <stop offset="46%" stop-color="#ffe888"></stop>
      <stop offset="60%" stop-color="#dca010"></stop>
      <stop offset="76%" stop-color="#c08200"></stop>
      <stop offset="100%" stop-color="#864e00"></stop>
    </linearGradient>
    <linearGradient id="sealLGS" x1="5%" y1="5%" x2="75%" y2="75%">
      <stop offset="0%" stop-color="#fff8d0" stop-opacity="0"></stop>
      <stop offset="30%" stop-color="#fff8d0" stop-opacity="0.45"></stop>
      <stop offset="50%" stop-color="#ffffff" stop-opacity="0.7"></stop>
      <stop offset="70%" stop-color="#fff8d0" stop-opacity="0.2"></stop>
      <stop offset="100%" stop-color="#fff8d0" stop-opacity="0"></stop>
    </linearGradient>
    <linearGradient id="sealLGI" x1="0%" y1="5%" x2="100%" y2="95%">
      <stop offset="0%" stop-color="#c89008"></stop>
      <stop offset="16%" stop-color="#f0d050"></stop>
      <stop offset="36%" stop-color="#fef6b0"></stop>
      <stop offset="52%" stop-color="#fef8c0"></stop>
      <stop offset="68%" stop-color="#f0cc48"></stop>
      <stop offset="84%" stop-color="#cc9010"></stop>
      <stop offset="100%" stop-color="#a87000"></stop>
    </linearGradient>
    <linearGradient id="sealLGIS" x1="5%" y1="5%" x2="72%" y2="88%">
      <stop offset="0%" stop-color="#ffffff" stop-opacity="0"></stop>
      <stop offset="32%" stop-color="#ffffff" stop-opacity="0.28"></stop>
      <stop offset="52%" stop-color="#ffffff" stop-opacity="0.45"></stop>
      <stop offset="78%" stop-color="#ffffff" stop-opacity="0.08"></stop>
      <stop offset="100%" stop-color="#ffffff" stop-opacity="0"></stop>
    </linearGradient>
    <filter id="sealFSoft" x="-50%" y="-50%" width="200%" height="200%">
      <feGaussianBlur stdDeviation="2"></feGaussianBlur>
    </filter>
    <filter id="sealFS" x="-15%" y="-15%" width="130%" height="130%">
      <feDropShadow dx="1" dy="3" stdDeviation="5" flood-color="#7a4600" flood-opacity="0.28"></feDropShadow>
    </filter>
    <path id="sealTTop" d="M72,155 A78,78 0 0,1 228,155"></path>
    <path id="sealTBot" d="M72,155 A78,78 0 0,0 228,155"></path>
  </defs>
  <g filter="url(#sealFS)">
    <path d="M150.00,32.00L151.48,31.94L152.97,31.75L154.47,31.45L155.98,31.04L157.52,30.52L159.07,29.90L160.65,29.21L162.26,28.44L163.90,27.62L165.57,26.76L167.27,25.88L168.99,25.00L170.75,24.13L172.52,23.30L174.32,22.52L176.13,21.80L177.95,21.17L179.77,20.64L181.59,20.23L183.39,19.94L185.18,19.78L186.95,19.77L188.68,19.91L190.38,20.21L192.03,20.66L193.63,21.26L195.17,22.02L196.65,22.93L198.08,23.97L199.43,25.15L200.72,26.45L201.95,27.85L203.11,29.35L204.21,30.93L205.26,32.57L206.25,34.26L207.20,35.98L208.11,37.71L208.99,39.44L209.84,41.15L210.69,42.82L211.53,44.45L212.38,46.01L213.25,47.51L214.15,48.92L215.08,50.24L216.06,51.46L217.10,52.59L218.19,53.61L219.36,54.54L220.60,55.36L221.91,56.08L223.30,56.72L224.77,57.27L226.31,57.76L227.93,58.17L229.62,58.54L231.37,58.86L233.18,59.16L235.03,59.45L236.92,59.74L238.84,60.04L240.77,60.37L242.69,60.74L244.61,61.16L246.49,61.64L248.33,62.20L250.12,62.85L251.83,63.58L253.47,64.41L255.00,65.33L256.44,66.36L257.76,67.49L258.96,68.73L260.03,70.06L260.96,71.49L261.77,73.01L262.44,74.62L262.97,76.30L263.38,78.05L263.66,79.86L263.83,81.71L263.88,83.61L263.85,85.54L263.73,87.48L263.54,89.43L263.30,91.37L263.01,93.31L262.71,95.22L262.40,97.11L262.10,98.96L261.82,100.77L261.59,102.54L261.42,104.26L261.31,105.93L261.29,107.55L261.36,109.11L261.54,110.63L261.82,112.11L262.22,113.54L262.74,114.93L263.38,116.29L264.13,117.62L264.99,118.93L265.96,120.23L267.02,121.52L268.17,122.80L269.40,124.10L270.69,125.40L272.02,126.72L273.38,128.07L274.75,129.44L276.12,130.84L277.46,132.27L278.76,133.73L280.00,135.23L281.16,136.77L282.22,138.34L283.18,139.94L284.02,141.57L284.72,143.22L285.27,144.90L285.67,146.59L285.92,148.29L286.00,150.00L285.92,151.71L285.67,153.41L285.27,155.10L284.72,156.78L284.02,158.43L283.18,160.06L282.22,161.66L281.16,163.23L280.00,164.77L278.76,166.27L277.46,167.73L276.12,169.16L274.75,170.56L273.38,171.93L272.02,173.28L270.69,174.60L269.40,175.90L268.17,177.20L267.02,178.48L265.96,179.77L264.99,181.07L264.13,182.38L263.38,183.71L262.74,185.07L262.22,186.46L261.82,187.89L261.54,189.37L261.36,190.89L261.29,192.45L261.31,194.07L261.42,195.74L261.59,197.46L261.82,199.23L262.10,201.04L262.40,202.89L262.71,204.78L263.01,206.69L263.30,208.63L263.54,210.57L263.73,212.52L263.85,214.46L263.88,216.39L263.83,218.29L263.66,220.14L263.38,221.95L262.97,223.70L262.44,225.38L261.77,226.99L260.96,228.51L260.03,229.94L258.96,231.27L257.76,232.51L256.44,233.64L255.00,234.67L253.47,235.59L251.83,236.42L250.12,237.15L248.33,237.80L246.49,238.36L244.61,238.84L242.69,239.26L240.77,239.63L238.84,239.96L236.92,240.26L235.03,240.55L233.18,240.84L231.37,241.14L229.62,241.46L227.93,241.83L226.31,242.24L224.77,242.73L223.30,243.28L221.91,243.92L220.60,244.64L219.36,245.46L218.19,246.39L217.10,247.41L216.06,248.54L215.08,249.76L214.15,251.08L213.25,252.49L212.38,253.99L211.53,255.55L210.69,257.18L209.84,258.85L208.99,260.56L208.11,262.29L207.20,264.02L206.25,265.74L205.26,267.43L204.21,269.07L203.11,270.65L201.95,272.15L200.72,273.55L199.43,274.85L198.08,276.03L196.65,277.07L195.17,277.98L193.63,278.74L192.03,279.34L190.38,279.79L188.68,280.09L186.95,280.23L185.18,280.22L183.39,280.06L181.59,279.77L179.77,279.36L177.95,278.83L176.13,278.20L174.32,277.48L172.52,276.70L170.75,275.87L168.99,275.00L167.27,274.12L165.57,273.24L163.90,272.38L162.26,271.56L160.65,270.79L159.07,270.10L157.52,269.48L155.98,268.96L154.47,268.55L152.97,268.25L151.48,268.06L150.00,268.00L148.52,268.06L147.03,268.25L145.53,268.55L144.02,268.96L142.48,269.48L140.93,270.10L139.35,270.79L137.74,271.56L136.10,272.38L134.43,273.24L132.73,274.12L131.01,275.00L129.25,275.87L127.48,276.70L125.68,277.48L123.87,278.20L122.05,278.83L120.23,279.36L118.41,279.77L116.61,280.06L114.82,280.22L113.05,280.23L111.32,280.09L109.62,279.79L107.97,279.34L106.37,278.74L104.83,277.98L103.35,277.07L101.92,276.03L100.57,274.85L99.28,273.55L98.05,272.15L96.89,270.65L95.79,269.07L94.74,267.43L93.75,265.74L92.80,264.02L91.89,262.29L91.01,260.56L90.16,258.85L89.31,257.18L88.47,255.55L87.62,253.99L86.75,252.49L85.85,251.08L84.92,249.76L83.94,248.54L82.90,247.41L81.81,246.39L80.64,245.46L79.40,244.64L78.09,243.92L76.70,243.28L75.23,242.73L73.69,242.24L72.07,241.83L70.38,241.46L68.63,241.14L66.82,240.84L64.97,240.55L63.08,240.26L61.16,239.96L59.23,239.63L57.31,239.26L55.39,238.84L53.51,238.36L51.67,237.80L49.88,237.15L48.17,236.42L46.53,235.59L45.00,234.67L43.56,233.64L42.24,232.51L41.04,231.27L39.97,229.94L39.04,228.51L38.23,226.99L37.56,225.38L37.03,223.70L36.62,221.95L36.34,220.14L36.17,218.29L36.12,216.39L36.15,214.46L36.27,212.52L36.46,210.57L36.70,208.63L36.99,206.69L37.29,204.78L37.60,202.89L37.90,201.04L38.18,199.23L38.41,197.46L38.58,195.74L38.69,194.07L38.71,192.45L38.64,190.89L38.46,189.37L38.18,187.89L37.78,186.46L37.26,185.07L36.62,183.71L35.87,182.38L35.01,181.07L34.04,179.77L32.98,178.48L31.83,177.20L30.60,175.90L29.31,174.60L27.98,173.28L26.62,171.93L25.25,170.56L23.88,169.16L22.54,167.73L21.24,166.27L20.00,164.77L18.84,163.23L17.78,161.66L16.82,160.06L15.98,158.43L15.28,156.78L14.73,155.10L14.33,153.41L14.08,151.71L14.00,150.00L14.08,148.29L14.33,146.59L14.73,144.90L15.28,143.22L15.98,141.57L16.82,139.94L17.78,138.34L18.84,136.77L20.00,135.23L21.24,133.73L22.54,132.27L23.88,130.84L25.25,129.44L26.62,128.07L27.98,126.72L29.31,125.40L30.60,124.10L31.83,122.80L32.98,121.52L34.04,120.23L35.01,118.93L35.87,117.62L36.62,116.29L37.26,114.93L37.78,113.54L38.18,112.11L38.46,110.63L38.64,109.11L38.71,107.55L38.69,105.93L38.58,104.26L38.41,102.54L38.18,100.77L37.90,98.96L37.60,97.11L37.29,95.22L36.99,93.31L36.70,91.37L36.46,89.43L36.27,87.48L36.15,85.54L36.12,83.61L36.17,81.71L36.34,79.86L36.62,78.05L37.03,76.30L37.56,74.62L38.23,73.01L39.04,71.49L39.97,70.06L41.04,68.73L42.24,67.49L43.56,66.36L45.00,65.33L46.53,64.41L48.17,63.58L49.88,62.85L51.67,62.20L53.51,61.64L55.39,61.16L57.31,60.74L59.23,60.37L61.16,60.04L63.08,59.74L64.97,59.45L66.82,59.16L68.63,58.86L70.38,58.54L72.07,58.17L73.69,57.76L75.23,57.27L76.70,56.72L78.09,56.08L79.40,55.36L80.64,54.54L81.81,53.61L82.90,52.59L83.94,51.46L84.92,50.24L85.85,48.92L86.75,47.51L87.62,46.01L88.47,44.45L89.31,42.82L90.16,41.15L91.01,39.44L91.89,37.71L92.80,35.98L93.75,34.26L94.74,32.57L95.79,30.93L96.89,29.35L98.05,27.85L99.28,26.45L100.57,25.15L101.92,23.97L103.35,22.93L104.83,22.02L106.37,21.26L107.97,20.66L109.62,20.21L111.32,19.91L113.05,19.77L114.82,19.78L116.61,19.94L118.41,20.23L120.23,20.64L122.05,21.17L123.87,21.80L125.68,22.52L127.48,23.30L129.25,24.13L131.01,25.00L132.73,25.88L134.43,26.76L136.10,27.62L137.74,28.44L139.35,29.21L140.93,29.90L142.48,30.52L144.02,31.04L145.53,31.45L147.03,31.75L148.52,31.94Z" fill="url(#sealLGO)"></path>
    <path d="M150.00,32.00L151.48,31.94L152.97,31.75L154.47,31.45L155.98,31.04L157.52,30.52L159.07,29.90L160.65,29.21L162.26,28.44L163.90,27.62L165.57,26.76L167.27,25.88L168.99,25.00L170.75,24.13L172.52,23.30L174.32,22.52L176.13,21.80L177.95,21.17L179.77,20.64L181.59,20.23L183.39,19.94L185.18,19.78L186.95,19.77L188.68,19.91L190.38,20.21L192.03,20.66L193.63,21.26L195.17,22.02L196.65,22.93L198.08,23.97L199.43,25.15L200.72,26.45L201.95,27.85L203.11,29.35L204.21,30.93L205.26,32.57L206.25,34.26L207.20,35.98L208.11,37.71L208.99,39.44L209.84,41.15L210.69,42.82L211.53,44.45L212.38,46.01L213.25,47.51L214.15,48.92L215.08,50.24L216.06,51.46L217.10,52.59L218.19,53.61L219.36,54.54L220.60,55.36L221.91,56.08L223.30,56.72L224.77,57.27L226.31,57.76L227.93,58.17L229.62,58.54L231.37,58.86L233.18,59.16L235.03,59.45L236.92,59.74L238.84,60.04L240.77,60.37L242.69,60.74L244.61,61.16L246.49,61.64L248.33,62.20L250.12,62.85L251.83,63.58L253.47,64.41L255.00,65.33L256.44,66.36L257.76,67.49L258.96,68.73L260.03,70.06L260.96,71.49L261.77,73.01L262.44,74.62L262.97,76.30L263.38,78.05L263.66,79.86L263.83,81.71L263.88,83.61L263.85,85.54L263.73,87.48L263.54,89.43L263.30,91.37L263.01,93.31L262.71,95.22L262.40,97.11L262.10,98.96L261.82,100.77L261.59,102.54L261.42,104.26L261.31,105.93L261.29,107.55L261.36,109.11L261.54,110.63L261.82,112.11L262.22,113.54L262.74,114.93L263.38,116.29L264.13,117.62L264.99,118.93L265.96,120.23L267.02,121.52L268.17,122.80L269.40,124.10L270.69,125.40L272.02,126.72L273.38,128.07L274.75,129.44L276.12,130.84L277.46,132.27L278.76,133.73L280.00,135.23L281.16,136.77L282.22,138.34L283.18,139.94L284.02,141.57L284.72,143.22L285.27,144.90L285.67,146.59L285.92,148.29L286.00,150.00L285.92,151.71L285.67,153.41L285.27,155.10L284.72,156.78L284.02,158.43L283.18,160.06L282.22,161.66L281.16,163.23L280.00,164.77L278.76,166.27L277.46,167.73L276.12,169.16L274.75,170.56L273.38,171.93L272.02,173.28L270.69,174.60L269.40,175.90L268.17,177.20L267.02,178.48L265.96,179.77L264.99,181.07L264.13,182.38L263.38,183.71L262.74,185.07L262.22,186.46L261.82,187.89L261.54,189.37L261.36,190.89L261.29,192.45L261.31,194.07L261.42,195.74L261.59,197.46L261.82,199.23L262.10,201.04L262.40,202.89L262.71,204.78L263.01,206.69L263.30,208.63L263.54,210.57L263.73,212.52L263.85,214.46L263.88,216.39L263.83,218.29L263.66,220.14L263.38,221.95L262.97,223.70L262.44,225.38L261.77,226.99L260.96,228.51L260.03,229.94L258.96,231.27L257.76,232.51L256.44,233.64L255.00,234.67L253.47,235.59L251.83,236.42L250.12,237.15L248.33,237.80L246.49,238.36L244.61,238.84L242.69,239.26L240.77,239.63L238.84,239.96L236.92,240.26L235.03,240.55L233.18,240.84L231.37,241.14L229.62,241.46L227.93,241.83L226.31,242.24L224.77,242.73L223.30,243.28L221.91,243.92L220.60,244.64L219.36,245.46L218.19,246.39L217.10,247.41L216.06,248.54L215.08,249.76L214.15,251.08L213.25,252.49L212.38,253.99L211.53,255.55L210.69,257.18L209.84,258.85L208.99,260.56L208.11,262.29L207.20,264.02L206.25,265.74L205.26,267.43L204.21,269.07L203.11,270.65L201.95,272.15L200.72,273.55L199.43,274.85L198.08,276.03L196.65,277.07L195.17,277.98L193.63,278.74L192.03,279.34L190.38,279.79L188.68,280.09L186.95,280.23L185.18,280.22L183.39,280.06L181.59,279.77L179.77,279.36L177.95,278.83L176.13,278.20L174.32,277.48L172.52,276.70L170.75,275.87L168.99,275.00L167.27,274.12L165.57,273.24L163.90,272.38L162.26,271.56L160.65,270.79L159.07,270.10L157.52,269.48L155.98,268.96L154.47,268.55L152.97,268.25L151.48,268.06L150.00,268.00L148.52,268.06L147.03,268.25L145.53,268.55L144.02,268.96L142.48,269.48L140.93,270.10L139.35,270.79L137.74,271.56L136.10,272.38L134.43,273.24L132.73,274.12L131.01,275.00L129.25,275.87L127.48,276.70L125.68,277.48L123.87,278.20L122.05,278.83L120.23,279.36L118.41,279.77L116.61,280.06L114.82,280.22L113.05,280.23L111.32,280.09L109.62,279.79L107.97,279.34L106.37,278.74L104.83,277.98L103.35,277.07L101.92,276.03L100.57,274.85L99.28,273.55L98.05,272.15L96.89,270.65L95.79,269.07L94.74,267.43L93.75,265.74L92.80,264.02L91.89,262.29L91.01,260.56L90.16,258.85L89.31,257.18L88.47,255.55L87.62,253.99L86.75,252.49L85.85,251.08L84.92,249.76L83.94,248.54L82.90,247.41L81.81,246.39L80.64,245.46L79.40,244.64L78.09,243.92L76.70,243.28L75.23,242.73L73.69,242.24L72.07,241.83L70.38,241.46L68.63,241.14L66.82,240.84L64.97,240.55L63.08,240.26L61.16,239.96L59.23,239.63L57.31,239.26L55.39,238.84L53.51,238.36L51.67,237.80L49.88,237.15L48.17,236.42L46.53,235.59L45.00,234.67L43.56,233.64L42.24,232.51L41.04,231.27L39.97,229.94L39.04,228.51L38.23,226.99L37.56,225.38L37.03,223.70L36.62,221.95L36.34,220.14L36.17,218.29L36.12,216.39L36.15,214.46L36.27,212.52L36.46,210.57L36.70,208.63L36.99,206.69L37.29,204.78L37.60,202.89L37.90,201.04L38.18,199.23L38.41,197.46L38.58,195.74L38.69,194.07L38.71,192.45L38.64,190.89L38.46,189.37L38.18,187.89L37.78,186.46L37.26,185.07L36.62,183.71L35.87,182.38L35.01,181.07L34.04,179.77L32.98,178.48L31.83,177.20L30.60,175.90L29.31,174.60L27.98,173.28L26.62,171.93L25.25,170.56L23.88,169.16L22.54,167.73L21.24,166.27L20.00,164.77L18.84,163.23L17.78,161.66L16.82,160.06L15.98,158.43L15.28,156.78L14.73,155.10L14.33,153.41L14.08,151.71L14.00,150.00L14.08,148.29L14.33,146.59L14.73,144.90L15.28,143.22L15.98,141.57L16.82,139.94L17.78,138.34L18.84,136.77L20.00,135.23L21.24,133.73L22.54,132.27L23.88,130.84L25.25,129.44L26.62,128.07L27.98,126.72L29.31,125.40L30.60,124.10L31.83,122.80L32.98,121.52L34.04,120.23L35.01,118.93L35.87,117.62L36.62,116.29L37.26,114.93L37.78,113.54L38.18,112.11L38.46,110.63L38.64,109.11L38.71,107.55L38.69,105.93L38.58,104.26L38.41,102.54L38.18,100.77L37.90,98.96L37.60,97.11L37.29,95.22L36.99,93.31L36.70,91.37L36.46,89.43L36.27,87.48L36.15,85.54L36.12,83.61L36.17,81.71L36.34,79.86L36.62,78.05L37.03,76.30L37.56,74.62L38.23,73.01L39.04,71.49L39.97,70.06L41.04,68.73L42.24,67.49L43.56,66.36L45.00,65.33L46.53,64.41L48.17,63.58L49.88,62.85L51.67,62.20L53.51,61.64L55.39,61.16L57.31,60.74L59.23,60.37L61.16,60.04L63.08,59.74L64.97,59.45L66.82,59.16L68.63,58.86L70.38,58.54L72.07,58.17L73.69,57.76L75.23,57.27L76.70,56.72L78.09,56.08L79.40,55.36L80.64,54.54L81.81,53.61L82.90,52.59L83.94,51.46L84.92,50.24L85.85,48.92L86.75,47.51L87.62,46.01L88.47,44.45L89.31,42.82L90.16,41.15L91.01,39.44L91.89,37.71L92.80,35.98L93.75,34.26L94.74,32.57L95.79,30.93L96.89,29.35L98.05,27.85L99.28,26.45L100.57,25.15L101.92,23.97L103.35,22.93L104.83,22.02L106.37,21.26L107.97,20.66L109.62,20.21L111.32,19.91L113.05,19.77L114.82,19.78L116.61,19.94L118.41,20.23L120.23,20.64L122.05,21.17L123.87,21.80L125.68,22.52L127.48,23.30L129.25,24.13L131.01,25.00L132.73,25.88L134.43,26.76L136.10,27.62L137.74,28.44L139.35,29.21L140.93,29.90L142.48,30.52L144.02,31.04L145.53,31.45L147.03,31.75L148.52,31.94Z" fill="url(#sealLGS)"></path>
    <path d="M150.00,32.00L151.48,31.94L152.97,31.75L154.47,31.45L155.98,31.04L157.52,30.52L159.07,29.90L160.65,29.21L162.26,28.44L163.90,27.62L165.57,26.76L167.27,25.88L168.99,25.00L170.75,24.13L172.52,23.30L174.32,22.52L176.13,21.80L177.95,21.17L179.77,20.64L181.59,20.23L183.39,19.94L185.18,19.78L186.95,19.77L188.68,19.91L190.38,20.21L192.03,20.66L193.63,21.26L195.17,22.02L196.65,22.93L198.08,23.97L199.43,25.15L200.72,26.45L201.95,27.85L203.11,29.35L204.21,30.93L205.26,32.57L206.25,34.26L207.20,35.98L208.11,37.71L208.99,39.44L209.84,41.15L210.69,42.82L211.53,44.45L212.38,46.01L213.25,47.51L214.15,48.92L215.08,50.24L216.06,51.46L217.10,52.59L218.19,53.61L219.36,54.54L220.60,55.36L221.91,56.08L223.30,56.72L224.77,57.27L226.31,57.76L227.93,58.17L229.62,58.54L231.37,58.86L233.18,59.16L235.03,59.45L236.92,59.74L238.84,60.04L240.77,60.37L242.69,60.74L244.61,61.16L246.49,61.64L248.33,62.20L250.12,62.85L251.83,63.58L253.47,64.41L255.00,65.33L256.44,66.36L257.76,67.49L258.96,68.73L260.03,70.06L260.96,71.49L261.77,73.01L262.44,74.62L262.97,76.30L263.38,78.05L263.66,79.86L263.83,81.71L263.88,83.61L263.85,85.54L263.73,87.48L263.54,89.43L263.30,91.37L263.01,93.31L262.71,95.22L262.40,97.11L262.10,98.96L261.82,100.77L261.59,102.54L261.42,104.26L261.31,105.93L261.29,107.55L261.36,109.11L261.54,110.63L261.82,112.11L262.22,113.54L262.74,114.93L263.38,116.29L264.13,117.62L264.99,118.93L265.96,120.23L267.02,121.52L268.17,122.80L269.40,124.10L270.69,125.40L272.02,126.72L273.38,128.07L274.75,129.44L276.12,130.84L277.46,132.27L278.76,133.73L280.00,135.23L281.16,136.77L282.22,138.34L283.18,139.94L284.02,141.57L284.72,143.22L285.27,144.90L285.67,146.59L285.92,148.29L286.00,150.00L285.92,151.71L285.67,153.41L285.27,155.10L284.72,156.78L284.02,158.43L283.18,160.06L282.22,161.66L281.16,163.23L280.00,164.77L278.76,166.27L277.46,167.73L276.12,169.16L274.75,170.56L273.38,171.93L272.02,173.28L270.69,174.60L269.40,175.90L268.17,177.20L267.02,178.48L265.96,179.77L264.99,181.07L264.13,182.38L263.38,183.71L262.74,185.07L262.22,186.46L261.82,187.89L261.54,189.37L261.36,190.89L261.29,192.45L261.31,194.07L261.42,195.74L261.59,197.46L261.82,199.23L262.10,201.04L262.40,202.89L262.71,204.78L263.01,206.69L263.30,208.63L263.54,210.57L263.73,212.52L263.85,214.46L263.88,216.39L263.83,218.29L263.66,220.14L263.38,221.95L262.97,223.70L262.44,225.38L261.77,226.99L260.96,228.51L260.03,229.94L258.96,231.27L257.76,232.51L256.44,233.64L255.00,234.67L253.47,235.59L251.83,236.42L250.12,237.15L248.33,237.80L246.49,238.36L244.61,238.84L242.69,239.26L240.77,239.63L238.84,239.96L236.92,240.26L235.03,240.55L233.18,240.84L231.37,241.14L229.62,241.46L227.93,241.83L226.31,242.24L224.77,242.73L223.30,243.28L221.91,243.92L220.60,244.64L219.36,245.46L218.19,246.39L217.10,247.41L216.06,248.54L215.08,249.76L214.15,251.08L213.25,252.49L212.38,253.99L211.53,255.55L210.69,257.18L209.84,258.85L208.99,260.56L208.11,262.29L207.20,264.02L206.25,265.74L205.26,267.43L204.21,269.07L203.11,270.65L201.95,272.15L200.72,273.55L199.43,274.85L198.08,276.03L196.65,277.07L195.17,277.98L193.63,278.74L192.03,279.34L190.38,279.79L188.68,280.09L186.95,280.23L185.18,280.22L183.39,280.06L181.59,279.77L179.77,279.36L177.95,278.83L176.13,278.20L174.32,277.48L172.52,276.70L170.75,275.87L168.99,275.00L167.27,274.12L165.57,273.24L163.90,272.38L162.26,271.56L160.65,270.79L159.07,270.10L157.52,269.48L155.98,268.96L154.47,268.55L152.97,268.25L151.48,268.06L150.00,268.00L148.52,268.06L147.03,268.25L145.53,268.55L144.02,268.96L142.48,269.48L140.93,270.10L139.35,270.79L137.74,271.56L136.10,272.38L134.43,273.24L132.73,274.12L131.01,275.00L129.25,275.87L127.48,276.70L125.68,277.48L123.87,278.20L122.05,278.83L120.23,279.36L118.41,279.77L116.61,280.06L114.82,280.22L113.05,280.23L111.32,280.09L109.62,279.79L107.97,279.34L106.37,278.74L104.83,277.98L103.35,277.07L101.92,276.03L100.57,274.85L99.28,273.55L98.05,272.15L96.89,270.65L95.79,269.07L94.74,267.43L93.75,265.74L92.80,264.02L91.89,262.29L91.01,260.56L90.16,258.85L89.31,257.18L88.47,255.55L87.62,253.99L86.75,252.49L85.85,251.08L84.92,249.76L83.94,248.54L82.90,247.41L81.81,246.39L80.64,245.46L79.40,244.64L78.09,243.92L76.70,243.28L75.23,242.73L73.69,242.24L72.07,241.83L70.38,241.46L68.63,241.14L66.82,240.84L64.97,240.55L63.08,240.26L61.16,239.96L59.23,239.63L57.31,239.26L55.39,238.84L53.51,238.36L51.67,237.80L49.88,237.15L48.17,236.42L46.53,235.59L45.00,234.67L43.56,233.64L42.24,232.51L41.04,231.27L39.97,229.94L39.04,228.51L38.23,226.99L37.56,225.38L37.03,223.70L36.62,221.95L36.34,220.14L36.17,218.29L36.12,216.39L36.15,214.46L36.27,212.52L36.46,210.57L36.70,208.63L36.99,206.69L37.29,204.78L37.60,202.89L37.90,201.04L38.18,199.23L38.41,197.46L38.58,195.74L38.69,194.07L38.71,192.45L38.64,190.89L38.46,189.37L38.18,187.89L37.78,186.46L37.26,185.07L36.62,183.71L35.87,182.38L35.01,181.07L34.04,179.77L32.98,178.48L31.83,177.20L30.60,175.90L29.31,174.60L27.98,173.28L26.62,171.93L25.25,170.56L23.88,169.16L22.54,167.73L21.24,166.27L20.00,164.77L18.84,163.23L17.78,161.66L16.82,160.06L15.98,158.43L15.28,156.78L14.73,155.10L14.33,153.41L14.08,151.71L14.00,150.00L14.08,148.29L14.33,146.59L14.73,144.90L15.28,143.22L15.98,141.57L16.82,139.94L17.78,138.34L18.84,136.77L20.00,135.23L21.24,133.73L22.54,132.27L23.88,130.84L25.25,129.44L26.62,128.07L27.98,126.72L29.31,125.40L30.60,124.10L31.83,122.80L32.98,121.52L34.04,120.23L35.01,118.93L35.87,117.62L36.62,116.29L37.26,114.93L37.78,113.54L38.18,112.11L38.46,110.63L38.64,109.11L38.71,107.55L38.69,105.93L38.58,104.26L38.41,102.54L38.18,100.77L37.90,98.96L37.60,97.11L37.29,95.22L36.99,93.31L36.70,91.37L36.46,89.43L36.27,87.48L36.15,85.54L36.12,83.61L36.17,81.71L36.34,79.86L36.62,78.05L37.03,76.30L37.56,74.62L38.23,73.01L39.04,71.49L39.97,70.06L41.04,68.73L42.24,67.49L43.56,66.36L45.00,65.33L46.53,64.41L48.17,63.58L49.88,62.85L51.67,62.20L53.51,61.64L55.39,61.16L57.31,60.74L59.23,60.37L61.16,60.04L63.08,59.74L64.97,59.45L66.82,59.16L68.63,58.86L70.38,58.54L72.07,58.17L73.69,57.76L75.23,57.27L76.70,56.72L78.09,56.08L79.40,55.36L80.64,54.54L81.81,53.61L82.90,52.59L83.94,51.46L84.92,50.24L85.85,48.92L86.75,47.51L87.62,46.01L88.47,44.45L89.31,42.82L90.16,41.15L91.01,39.44L91.89,37.71L92.80,35.98L93.75,34.26L94.74,32.57L95.79,30.93L96.89,29.35L98.05,27.85L99.28,26.45L100.57,25.15L101.92,23.97L103.35,22.93L104.83,22.02L106.37,21.26L107.97,20.66L109.62,20.21L111.32,19.91L113.05,19.77L114.82,19.78L116.61,19.94L118.41,20.23L120.23,20.64L122.05,21.17L123.87,21.80L125.68,22.52L127.48,23.30L129.25,24.13L131.01,25.00L132.73,25.88L134.43,26.76L136.10,27.62L137.74,28.44L139.35,29.21L140.93,29.90L142.48,30.52L144.02,31.04L145.53,31.45L147.03,31.75L148.52,31.94Z" fill="none" stroke="#9a6600" stroke-width="0.8" opacity="0.45"></path>
    <circle cx="150" cy="150" r="108" fill="url(#sealLGO)"></circle>
    <circle cx="150" cy="150" r="108" fill="url(#sealLGS)"></circle>
    <circle cx="150" cy="150" r="108" fill="none" stroke="#8a5600" stroke-width="1.8" opacity="0.7"></circle>
    <circle cx="150" cy="150" r="106" fill="none" stroke="#fde070" stroke-width="0.7" opacity="0.45"></circle>
    <circle cx="150" cy="150" r="99" fill="none" stroke="#8a5600" stroke-width="1.4" opacity="0.8" stroke-dasharray="9.72 4.86"></circle>
    <circle cx="150" cy="150" r="88" fill="url(#sealLGI)"></circle>
    <circle cx="150" cy="150" r="88" fill="url(#sealLGIS)"></circle>
    <text font-family="Georgia,serif" font-size="13" font-weight="bold" fill="#6e3e00" letter-spacing="-0.6" opacity="0.92">
      <textPath href="#sealTTop" startOffset="50%" text-anchor="middle">FORMAÇÃO SÓLIDA E EXPERIÊNCIA</textPath>
    </text>
    <text font-family="Georgia,serif" font-size="13" font-weight="bold" fill="#6e3e00" letter-spacing="-0.6" opacity="0.92">
      <textPath href="#sealTBot" startOffset="50%" text-anchor="middle">PRÁTICA · DECISÕES REAIS</textPath>
    </text>
    <text x="150" y="155" text-anchor="middle" font-family="Georgia,serif" font-size="16" fill="#9a6000" opacity="0.6">✦</text>
  </g>
</svg>